<mxfile host="app.diagrams.net" agent="Mozilla/5.0 (X11; Linux x86_64) AppleWebKit/537.36 (KHTML, like Gecko) Chrome/139.0.0.0 Safari/537.36" version="28.0.4">
  <diagram name="Page-1" id="uBZqKN-s34WyhM6SnBUq">
    <mxGraphModel dx="1422" dy="786" grid="1" gridSize="10" guides="1" tooltips="1" connect="1" arrows="1" fold="1" page="1" pageScale="1" pageWidth="850" pageHeight="1100" math="0" shadow="0">
      <root>
        <mxCell id="0" />
        <mxCell id="1" parent="0" />
        <mxCell id="gGPbWJvwnznGSAbzObPe-2" value="&lt;font style=&quot;font-size: 22px;&quot;&gt;GitHub&lt;/font&gt;&lt;div&gt;&lt;font style=&quot;font-size: 22px;&quot;&gt;Repository&lt;/font&gt;&lt;/div&gt;" style="rounded=1;whiteSpace=wrap;html=1;fillColor=#dae8fc;strokeColor=#6c8ebf;gradientColor=light-dark(#ffffff, #ededed);shadow=1;" vertex="1" parent="1">
          <mxGeometry x="200" y="130" width="120" height="60" as="geometry" />
        </mxCell>
        <mxCell id="gGPbWJvwnznGSAbzObPe-11" style="edgeStyle=orthogonalEdgeStyle;rounded=0;orthogonalLoop=1;jettySize=auto;html=1;exitX=0;exitY=0.75;exitDx=0;exitDy=0;entryX=1;entryY=0.25;entryDx=0;entryDy=0;" edge="1" parent="1" source="gGPbWJvwnznGSAbzObPe-6" target="gGPbWJvwnznGSAbzObPe-7">
          <mxGeometry relative="1" as="geometry" />
        </mxCell>
        <mxCell id="gGPbWJvwnznGSAbzObPe-6" value="&lt;font style=&quot;font-size: 22px;&quot;&gt;???&lt;/font&gt;&lt;div&gt;&lt;font style=&quot;font-size: 22px;&quot;&gt;irgendwas mit Jenkins&lt;/font&gt;&lt;/div&gt;&lt;div&gt;&lt;font style=&quot;font-size: 22px;&quot;&gt;???&lt;/font&gt;&lt;/div&gt;" style="rounded=1;whiteSpace=wrap;html=1;fillColor=#d5e8d4;strokeColor=#82b366;gradientColor=light-dark(#ffffff, #ededed);shadow=1;" vertex="1" parent="1">
          <mxGeometry x="365" y="130" width="120" height="190" as="geometry" />
        </mxCell>
        <mxCell id="gGPbWJvwnznGSAbzObPe-7" value="&lt;font style=&quot;font-size: 22px;&quot;&gt;RPM/DEB&lt;/font&gt;&lt;div&gt;&lt;font style=&quot;font-size: 22px;&quot;&gt;Pakete&lt;/font&gt;&lt;/div&gt;" style="rounded=1;whiteSpace=wrap;html=1;fillColor=#ffe6cc;strokeColor=#d79b00;gradientColor=light-dark(#fafafa, #ededed);shadow=1;" vertex="1" parent="1">
          <mxGeometry x="200" y="260" width="120" height="60" as="geometry" />
        </mxCell>
        <mxCell id="gGPbWJvwnznGSAbzObPe-10" style="edgeStyle=orthogonalEdgeStyle;rounded=0;orthogonalLoop=1;jettySize=auto;html=1;exitX=1;exitY=0.5;exitDx=0;exitDy=0;entryX=0.013;entryY=0.161;entryDx=0;entryDy=0;entryPerimeter=0;" edge="1" parent="1" source="gGPbWJvwnznGSAbzObPe-2" target="gGPbWJvwnznGSAbzObPe-6">
          <mxGeometry relative="1" as="geometry" />
        </mxCell>
      </root>
    </mxGraphModel>
  </diagram>
</mxfile>
